G04 #@! TF.FileFunction,Legend,Top*
%FSLAX46Y46*%
G04 Gerber Fmt 4.6, Leading zero omitted, Abs format (unit mm)*
G04 Created by KiCad (PCBNEW 4.0.2-stable) date 3/13/2016 5:29:00 PM*
%MOMM*%
G01*
G04 APERTURE LIST*
%ADD10C,0.100000*%
%ADD11C,0.150000*%
G04 APERTURE END LIST*
D10*
D11*
X165363143Y-72187714D02*
X165410762Y-72235333D01*
X165458381Y-72378190D01*
X165458381Y-72473428D01*
X165410762Y-72616286D01*
X165315524Y-72711524D01*
X165220286Y-72759143D01*
X165029810Y-72806762D01*
X164886952Y-72806762D01*
X164696476Y-72759143D01*
X164601238Y-72711524D01*
X164506000Y-72616286D01*
X164458381Y-72473428D01*
X164458381Y-72378190D01*
X164506000Y-72235333D01*
X164553619Y-72187714D01*
X164458381Y-71854381D02*
X165458381Y-71616286D01*
X164744095Y-71425809D01*
X165458381Y-71235333D01*
X164458381Y-70997238D01*
X164458381Y-70711524D02*
X165458381Y-70473429D01*
X164744095Y-70282952D01*
X165458381Y-70092476D01*
X164458381Y-69854381D01*
X165363143Y-68140095D02*
X165410762Y-68187714D01*
X165458381Y-68330571D01*
X165458381Y-68425809D01*
X165410762Y-68568667D01*
X165315524Y-68663905D01*
X165220286Y-68711524D01*
X165029810Y-68759143D01*
X164886952Y-68759143D01*
X164696476Y-68711524D01*
X164601238Y-68663905D01*
X164506000Y-68568667D01*
X164458381Y-68425809D01*
X164458381Y-68330571D01*
X164506000Y-68187714D01*
X164553619Y-68140095D01*
X164458381Y-67854381D02*
X164458381Y-67282952D01*
X165458381Y-67568667D02*
X164458381Y-67568667D01*
X165458381Y-66378190D02*
X164982190Y-66711524D01*
X165458381Y-66949619D02*
X164458381Y-66949619D01*
X164458381Y-66568666D01*
X164506000Y-66473428D01*
X164553619Y-66425809D01*
X164648857Y-66378190D01*
X164791714Y-66378190D01*
X164886952Y-66425809D01*
X164934571Y-66473428D01*
X164982190Y-66568666D01*
X164982190Y-66949619D01*
X165458381Y-65473428D02*
X165458381Y-65949619D01*
X164458381Y-65949619D01*
X164458381Y-64521047D02*
X165458381Y-64187714D01*
X164458381Y-63854380D01*
X164553619Y-63568666D02*
X164506000Y-63521047D01*
X164458381Y-63425809D01*
X164458381Y-63187713D01*
X164506000Y-63092475D01*
X164553619Y-63044856D01*
X164648857Y-62997237D01*
X164744095Y-62997237D01*
X164886952Y-63044856D01*
X165458381Y-63616285D01*
X165458381Y-62997237D01*
X166484571Y-70616285D02*
X166532190Y-70473428D01*
X166579810Y-70425809D01*
X166675048Y-70378190D01*
X166817905Y-70378190D01*
X166913143Y-70425809D01*
X166960762Y-70473428D01*
X167008381Y-70568666D01*
X167008381Y-70949619D01*
X166008381Y-70949619D01*
X166008381Y-70616285D01*
X166056000Y-70521047D01*
X166103619Y-70473428D01*
X166198857Y-70425809D01*
X166294095Y-70425809D01*
X166389333Y-70473428D01*
X166436952Y-70521047D01*
X166484571Y-70616285D01*
X166484571Y-70949619D01*
X167008381Y-69949619D02*
X166008381Y-69949619D01*
X167008381Y-69378190D02*
X166436952Y-69806762D01*
X166008381Y-69378190D02*
X166579810Y-69949619D01*
X166103619Y-68235333D02*
X166056000Y-68187714D01*
X166008381Y-68092476D01*
X166008381Y-67854380D01*
X166056000Y-67759142D01*
X166103619Y-67711523D01*
X166198857Y-67663904D01*
X166294095Y-67663904D01*
X166436952Y-67711523D01*
X167008381Y-68282952D01*
X167008381Y-67663904D01*
X166008381Y-67044857D02*
X166008381Y-66949618D01*
X166056000Y-66854380D01*
X166103619Y-66806761D01*
X166198857Y-66759142D01*
X166389333Y-66711523D01*
X166627429Y-66711523D01*
X166817905Y-66759142D01*
X166913143Y-66806761D01*
X166960762Y-66854380D01*
X167008381Y-66949618D01*
X167008381Y-67044857D01*
X166960762Y-67140095D01*
X166913143Y-67187714D01*
X166817905Y-67235333D01*
X166627429Y-67282952D01*
X166389333Y-67282952D01*
X166198857Y-67235333D01*
X166103619Y-67187714D01*
X166056000Y-67140095D01*
X166008381Y-67044857D01*
X167008381Y-65759142D02*
X167008381Y-66330571D01*
X167008381Y-66044857D02*
X166008381Y-66044857D01*
X166151238Y-66140095D01*
X166246476Y-66235333D01*
X166294095Y-66330571D01*
X166008381Y-64901999D02*
X166008381Y-65092476D01*
X166056000Y-65187714D01*
X166103619Y-65235333D01*
X166246476Y-65330571D01*
X166436952Y-65378190D01*
X166817905Y-65378190D01*
X166913143Y-65330571D01*
X166960762Y-65282952D01*
X167008381Y-65187714D01*
X167008381Y-64997237D01*
X166960762Y-64901999D01*
X166913143Y-64854380D01*
X166817905Y-64806761D01*
X166579810Y-64806761D01*
X166484571Y-64854380D01*
X166436952Y-64901999D01*
X166389333Y-64997237D01*
X166389333Y-65187714D01*
X166436952Y-65282952D01*
X166484571Y-65330571D01*
X166579810Y-65378190D01*
X158320000Y-68063000D02*
X158320000Y-69063000D01*
X162320000Y-68063000D02*
X162320000Y-69063000D01*
X162765000Y-82134000D02*
X162765000Y-83134000D01*
X166765000Y-82134000D02*
X166765000Y-83134000D01*
X160050000Y-83260000D02*
X158050000Y-83260000D01*
X158050000Y-85310000D02*
X160050000Y-85310000D01*
X155605000Y-70052000D02*
X153605000Y-70052000D01*
X153605000Y-72102000D02*
X155605000Y-72102000D01*
X151820000Y-84777000D02*
X151820000Y-82777000D01*
X149770000Y-82777000D02*
X149770000Y-84777000D01*
X149407000Y-84777000D02*
X149407000Y-82777000D01*
X147357000Y-82777000D02*
X147357000Y-84777000D01*
X157930000Y-62530000D02*
X150310000Y-62530000D01*
X157930000Y-65070000D02*
X150310000Y-65070000D01*
X160750000Y-65350000D02*
X159200000Y-65350000D01*
X150310000Y-62530000D02*
X150310000Y-65070000D01*
X157930000Y-65070000D02*
X157930000Y-62530000D01*
X159200000Y-62250000D02*
X160750000Y-62250000D01*
X160750000Y-62250000D02*
X160750000Y-65350000D01*
X149525000Y-89238000D02*
X146985000Y-89238000D01*
X152345000Y-89518000D02*
X150795000Y-89518000D01*
X149525000Y-89238000D02*
X149525000Y-86698000D01*
X150795000Y-86418000D02*
X152345000Y-86418000D01*
X152345000Y-86418000D02*
X152345000Y-89518000D01*
X149525000Y-86698000D02*
X146985000Y-86698000D01*
X146985000Y-86698000D02*
X146985000Y-89238000D01*
X153403000Y-81983000D02*
X153403000Y-79983000D01*
X155553000Y-79983000D02*
X155553000Y-81983000D01*
X149974000Y-73093000D02*
X149974000Y-71093000D01*
X152124000Y-71093000D02*
X152124000Y-73093000D01*
X159699000Y-82091000D02*
X159699000Y-80891000D01*
X161449000Y-80891000D02*
X161449000Y-82091000D01*
X155254000Y-68695000D02*
X155254000Y-67495000D01*
X157004000Y-67495000D02*
X157004000Y-68695000D01*
X158053000Y-83191000D02*
G75*
G03X158053000Y-83191000I-100000J0D01*
G01*
X157403000Y-82941000D02*
X157903000Y-82941000D01*
X157403000Y-80041000D02*
X157403000Y-82941000D01*
X157903000Y-80041000D02*
X157403000Y-80041000D01*
X157903000Y-82941000D02*
X157903000Y-80041000D01*
X153608000Y-69856000D02*
G75*
G03X153608000Y-69856000I-100000J0D01*
G01*
X152958000Y-69606000D02*
X153458000Y-69606000D01*
X152958000Y-66706000D02*
X152958000Y-69606000D01*
X153458000Y-66706000D02*
X152958000Y-66706000D01*
X153458000Y-69606000D02*
X153458000Y-66706000D01*
X155091860Y-89337060D02*
X155091860Y-88986540D01*
X155091860Y-85836940D02*
X155091860Y-86187460D01*
X159141440Y-89337060D02*
X159141440Y-88986540D01*
X154640560Y-89337060D02*
X154640560Y-88986540D01*
X154640560Y-85836940D02*
X154640560Y-86187460D01*
X159141440Y-85836940D02*
X159141440Y-86187460D01*
X154640560Y-89337060D02*
X159141440Y-89337060D01*
X154640560Y-85836940D02*
X159141440Y-85836940D01*
X154583860Y-76383060D02*
X154583860Y-76032540D01*
X154583860Y-72882940D02*
X154583860Y-73233460D01*
X158633440Y-76383060D02*
X158633440Y-76032540D01*
X154132560Y-76383060D02*
X154132560Y-76032540D01*
X154132560Y-72882940D02*
X154132560Y-73233460D01*
X158633440Y-72882940D02*
X158633440Y-73233460D01*
X154132560Y-76383060D02*
X158633440Y-76383060D01*
X154132560Y-72882940D02*
X158633440Y-72882940D01*
X145224780Y-84688860D02*
X145585460Y-86159520D01*
X145585460Y-86159520D02*
X145864860Y-85097800D01*
X145864860Y-85097800D02*
X146174740Y-86169680D01*
X146174740Y-86169680D02*
X146515100Y-84719340D01*
X143804920Y-85379740D02*
X144594860Y-85369580D01*
X144594860Y-85369580D02*
X144605020Y-85379740D01*
X144605020Y-85379740D02*
X144605020Y-85369580D01*
X144645660Y-84658380D02*
X144645660Y-86200160D01*
X143756660Y-84648220D02*
X143756660Y-86217940D01*
X143756660Y-86217940D02*
X143766820Y-86207780D01*
X143205480Y-84749820D02*
X142854960Y-84668540D01*
X142854960Y-84668540D02*
X142534920Y-84658380D01*
X142534920Y-84658380D02*
X142296160Y-84859040D01*
X142296160Y-84859040D02*
X142265680Y-85128280D01*
X142265680Y-85128280D02*
X142506980Y-85369580D01*
X142506980Y-85369580D02*
X142895600Y-85499120D01*
X142895600Y-85499120D02*
X143075940Y-85659140D01*
X143075940Y-85659140D02*
X143116580Y-85958860D01*
X143116580Y-85958860D02*
X142885440Y-86179840D01*
X142885440Y-86179840D02*
X142565400Y-86207780D01*
X142565400Y-86207780D02*
X142214880Y-86098560D01*
X141176020Y-84648220D02*
X140927100Y-84668540D01*
X140927100Y-84668540D02*
X140685800Y-84909840D01*
X140685800Y-84909840D02*
X140596900Y-85400060D01*
X140596900Y-85400060D02*
X140624840Y-85748040D01*
X140624840Y-85748040D02*
X140825500Y-86068080D01*
X140825500Y-86068080D02*
X141076960Y-86190000D01*
X141076960Y-86190000D02*
X141386840Y-86118880D01*
X141386840Y-86118880D02*
X141605280Y-85938540D01*
X141605280Y-85938540D02*
X141676400Y-85478800D01*
X141676400Y-85478800D02*
X141625600Y-85069860D01*
X141625600Y-85069860D02*
X141516380Y-84787920D01*
X141516380Y-84787920D02*
X141155700Y-84658380D01*
X141775460Y-82928640D02*
X141516380Y-83489980D01*
X141516380Y-83489980D02*
X142054860Y-84008140D01*
X142054860Y-84008140D02*
X142575560Y-83738900D01*
X142575560Y-83738900D02*
X142854960Y-83898920D01*
X144295140Y-83878600D02*
X144625340Y-83688100D01*
X144625340Y-83688100D02*
X145064760Y-84018300D01*
X145064760Y-84018300D02*
X145537200Y-83528080D01*
X145537200Y-83528080D02*
X145255260Y-83048020D01*
X145255260Y-83048020D02*
X145445760Y-82578120D01*
X145445760Y-82578120D02*
X146055360Y-82390160D01*
X146055360Y-82390160D02*
X146055360Y-81709440D01*
X146055360Y-81709440D02*
X145496560Y-81569740D01*
X145496560Y-81569740D02*
X145295900Y-80998240D01*
X145295900Y-80998240D02*
X145565140Y-80528340D01*
X145565140Y-80528340D02*
X145095240Y-80017800D01*
X145095240Y-80017800D02*
X144577080Y-80279420D01*
X144577080Y-80279420D02*
X144107180Y-80078760D01*
X144107180Y-80078760D02*
X143937000Y-79537740D01*
X143937000Y-79537740D02*
X143246120Y-79519960D01*
X143246120Y-79519960D02*
X143035300Y-80068600D01*
X143035300Y-80068600D02*
X142616200Y-80238780D01*
X142616200Y-80238780D02*
X142065020Y-79969540D01*
X142065020Y-79969540D02*
X141546860Y-80497860D01*
X141546860Y-80497860D02*
X141795780Y-81038880D01*
X141795780Y-81038880D02*
X141625600Y-81518940D01*
X141625600Y-81518940D02*
X141076960Y-81618000D01*
X141076960Y-81618000D02*
X141066800Y-82319040D01*
X141066800Y-82319040D02*
X141625600Y-82519700D01*
X141625600Y-82519700D02*
X141765300Y-82918480D01*
X143906520Y-82898160D02*
X144206240Y-82748300D01*
X144206240Y-82748300D02*
X144406900Y-82550180D01*
X144406900Y-82550180D02*
X144556760Y-82148860D01*
X144556760Y-82148860D02*
X144556760Y-81750080D01*
X144556760Y-81750080D02*
X144406900Y-81399560D01*
X144406900Y-81399560D02*
X143954780Y-81049040D01*
X143954780Y-81049040D02*
X143505200Y-80998240D01*
X143505200Y-80998240D02*
X143106420Y-81099840D01*
X143106420Y-81099840D02*
X142705100Y-81447820D01*
X142705100Y-81447820D02*
X142555240Y-81899940D01*
X142555240Y-81899940D02*
X142606040Y-82397780D01*
X142606040Y-82397780D02*
X142854960Y-82700040D01*
X142854960Y-82700040D02*
X143205480Y-82898160D01*
X143205480Y-82898160D02*
X142854960Y-83898920D01*
X143906520Y-82898160D02*
X144305300Y-83898920D01*
X161677334Y-72545381D02*
X161201143Y-72545381D01*
X161201143Y-71545381D01*
X161963048Y-71640619D02*
X162010667Y-71593000D01*
X162105905Y-71545381D01*
X162344001Y-71545381D01*
X162439239Y-71593000D01*
X162486858Y-71640619D01*
X162534477Y-71735857D01*
X162534477Y-71831095D01*
X162486858Y-71973952D01*
X161915429Y-72545381D01*
X162534477Y-72545381D01*
X164598334Y-86896381D02*
X164122143Y-86896381D01*
X164122143Y-85896381D01*
X165455477Y-86896381D02*
X164884048Y-86896381D01*
X165169762Y-86896381D02*
X165169762Y-85896381D01*
X165074524Y-86039238D01*
X164979286Y-86134476D01*
X164884048Y-86182095D01*
X155581334Y-84769143D02*
X155533715Y-84816762D01*
X155390858Y-84864381D01*
X155295620Y-84864381D01*
X155152762Y-84816762D01*
X155057524Y-84721524D01*
X155009905Y-84626286D01*
X154962286Y-84435810D01*
X154962286Y-84292952D01*
X155009905Y-84102476D01*
X155057524Y-84007238D01*
X155152762Y-83912000D01*
X155295620Y-83864381D01*
X155390858Y-83864381D01*
X155533715Y-83912000D01*
X155581334Y-83959619D01*
X156533715Y-84864381D02*
X155962286Y-84864381D01*
X156248000Y-84864381D02*
X156248000Y-83864381D01*
X156152762Y-84007238D01*
X156057524Y-84102476D01*
X155962286Y-84150095D01*
X157867334Y-72323143D02*
X157819715Y-72370762D01*
X157676858Y-72418381D01*
X157581620Y-72418381D01*
X157438762Y-72370762D01*
X157343524Y-72275524D01*
X157295905Y-72180286D01*
X157248286Y-71989810D01*
X157248286Y-71846952D01*
X157295905Y-71656476D01*
X157343524Y-71561238D01*
X157438762Y-71466000D01*
X157581620Y-71418381D01*
X157676858Y-71418381D01*
X157819715Y-71466000D01*
X157867334Y-71513619D01*
X158248286Y-71513619D02*
X158295905Y-71466000D01*
X158391143Y-71418381D01*
X158629239Y-71418381D01*
X158724477Y-71466000D01*
X158772096Y-71513619D01*
X158819715Y-71608857D01*
X158819715Y-71704095D01*
X158772096Y-71846952D01*
X158200667Y-72418381D01*
X158819715Y-72418381D01*
X150628334Y-81086143D02*
X150580715Y-81133762D01*
X150437858Y-81181381D01*
X150342620Y-81181381D01*
X150199762Y-81133762D01*
X150104524Y-81038524D01*
X150056905Y-80943286D01*
X150009286Y-80752810D01*
X150009286Y-80609952D01*
X150056905Y-80419476D01*
X150104524Y-80324238D01*
X150199762Y-80229000D01*
X150342620Y-80181381D01*
X150437858Y-80181381D01*
X150580715Y-80229000D01*
X150628334Y-80276619D01*
X150961667Y-80181381D02*
X151580715Y-80181381D01*
X151247381Y-80562333D01*
X151390239Y-80562333D01*
X151485477Y-80609952D01*
X151533096Y-80657571D01*
X151580715Y-80752810D01*
X151580715Y-80990905D01*
X151533096Y-81086143D01*
X151485477Y-81133762D01*
X151390239Y-81181381D01*
X151104524Y-81181381D01*
X151009286Y-81133762D01*
X150961667Y-81086143D01*
X148215334Y-81086143D02*
X148167715Y-81133762D01*
X148024858Y-81181381D01*
X147929620Y-81181381D01*
X147786762Y-81133762D01*
X147691524Y-81038524D01*
X147643905Y-80943286D01*
X147596286Y-80752810D01*
X147596286Y-80609952D01*
X147643905Y-80419476D01*
X147691524Y-80324238D01*
X147786762Y-80229000D01*
X147929620Y-80181381D01*
X148024858Y-80181381D01*
X148167715Y-80229000D01*
X148215334Y-80276619D01*
X149072477Y-80514714D02*
X149072477Y-81181381D01*
X148834381Y-80133762D02*
X148596286Y-80848048D01*
X149215334Y-80848048D01*
X162423381Y-64576095D02*
X161423381Y-64576095D01*
X161423381Y-64195142D01*
X161471000Y-64099904D01*
X161518619Y-64052285D01*
X161613857Y-64004666D01*
X161756714Y-64004666D01*
X161851952Y-64052285D01*
X161899571Y-64099904D01*
X161947190Y-64195142D01*
X161947190Y-64576095D01*
X162423381Y-63052285D02*
X162423381Y-63623714D01*
X162423381Y-63338000D02*
X161423381Y-63338000D01*
X161566238Y-63433238D01*
X161661476Y-63528476D01*
X161709095Y-63623714D01*
X146294381Y-88833095D02*
X145294381Y-88833095D01*
X145294381Y-88452142D01*
X145342000Y-88356904D01*
X145389619Y-88309285D01*
X145484857Y-88261666D01*
X145627714Y-88261666D01*
X145722952Y-88309285D01*
X145770571Y-88356904D01*
X145818190Y-88452142D01*
X145818190Y-88833095D01*
X145389619Y-87880714D02*
X145342000Y-87833095D01*
X145294381Y-87737857D01*
X145294381Y-87499761D01*
X145342000Y-87404523D01*
X145389619Y-87356904D01*
X145484857Y-87309285D01*
X145580095Y-87309285D01*
X145722952Y-87356904D01*
X146294381Y-87928333D01*
X146294381Y-87309285D01*
X154311334Y-78514381D02*
X153978000Y-78038190D01*
X153739905Y-78514381D02*
X153739905Y-77514381D01*
X154120858Y-77514381D01*
X154216096Y-77562000D01*
X154263715Y-77609619D01*
X154311334Y-77704857D01*
X154311334Y-77847714D01*
X154263715Y-77942952D01*
X154216096Y-77990571D01*
X154120858Y-78038190D01*
X153739905Y-78038190D01*
X155263715Y-78514381D02*
X154692286Y-78514381D01*
X154978000Y-78514381D02*
X154978000Y-77514381D01*
X154882762Y-77657238D01*
X154787524Y-77752476D01*
X154692286Y-77800095D01*
X150882334Y-75720381D02*
X150549000Y-75244190D01*
X150310905Y-75720381D02*
X150310905Y-74720381D01*
X150691858Y-74720381D01*
X150787096Y-74768000D01*
X150834715Y-74815619D01*
X150882334Y-74910857D01*
X150882334Y-75053714D01*
X150834715Y-75148952D01*
X150787096Y-75196571D01*
X150691858Y-75244190D01*
X150310905Y-75244190D01*
X151263286Y-74815619D02*
X151310905Y-74768000D01*
X151406143Y-74720381D01*
X151644239Y-74720381D01*
X151739477Y-74768000D01*
X151787096Y-74815619D01*
X151834715Y-74910857D01*
X151834715Y-75006095D01*
X151787096Y-75148952D01*
X151215667Y-75720381D01*
X151834715Y-75720381D01*
X160280334Y-79530381D02*
X159947000Y-79054190D01*
X159708905Y-79530381D02*
X159708905Y-78530381D01*
X160089858Y-78530381D01*
X160185096Y-78578000D01*
X160232715Y-78625619D01*
X160280334Y-78720857D01*
X160280334Y-78863714D01*
X160232715Y-78958952D01*
X160185096Y-79006571D01*
X160089858Y-79054190D01*
X159708905Y-79054190D01*
X160613667Y-78530381D02*
X161232715Y-78530381D01*
X160899381Y-78911333D01*
X161042239Y-78911333D01*
X161137477Y-78958952D01*
X161185096Y-79006571D01*
X161232715Y-79101810D01*
X161232715Y-79339905D01*
X161185096Y-79435143D01*
X161137477Y-79482762D01*
X161042239Y-79530381D01*
X160756524Y-79530381D01*
X160661286Y-79482762D01*
X160613667Y-79435143D01*
X155962334Y-66322381D02*
X155629000Y-65846190D01*
X155390905Y-66322381D02*
X155390905Y-65322381D01*
X155771858Y-65322381D01*
X155867096Y-65370000D01*
X155914715Y-65417619D01*
X155962334Y-65512857D01*
X155962334Y-65655714D01*
X155914715Y-65750952D01*
X155867096Y-65798571D01*
X155771858Y-65846190D01*
X155390905Y-65846190D01*
X156819477Y-65655714D02*
X156819477Y-66322381D01*
X156581381Y-65274762D02*
X156343286Y-65989048D01*
X156962334Y-65989048D01*
X156891095Y-78657381D02*
X156891095Y-79466905D01*
X156938714Y-79562143D01*
X156986333Y-79609762D01*
X157081571Y-79657381D01*
X157272048Y-79657381D01*
X157367286Y-79609762D01*
X157414905Y-79562143D01*
X157462524Y-79466905D01*
X157462524Y-78657381D01*
X158462524Y-79657381D02*
X157891095Y-79657381D01*
X158176809Y-79657381D02*
X158176809Y-78657381D01*
X158081571Y-78800238D01*
X157986333Y-78895476D01*
X157891095Y-78943095D01*
X149993381Y-68917905D02*
X150802905Y-68917905D01*
X150898143Y-68870286D01*
X150945762Y-68822667D01*
X150993381Y-68727429D01*
X150993381Y-68536952D01*
X150945762Y-68441714D01*
X150898143Y-68394095D01*
X150802905Y-68346476D01*
X149993381Y-68346476D01*
X150088619Y-67917905D02*
X150041000Y-67870286D01*
X149993381Y-67775048D01*
X149993381Y-67536952D01*
X150041000Y-67441714D01*
X150088619Y-67394095D01*
X150183857Y-67346476D01*
X150279095Y-67346476D01*
X150421952Y-67394095D01*
X150993381Y-67965524D01*
X150993381Y-67346476D01*
X148834381Y-77910952D02*
X147834381Y-77910952D01*
X147834381Y-77529999D01*
X147882000Y-77434761D01*
X147929619Y-77387142D01*
X148024857Y-77339523D01*
X148167714Y-77339523D01*
X148262952Y-77387142D01*
X148310571Y-77434761D01*
X148358190Y-77529999D01*
X148358190Y-77910952D01*
X147834381Y-77006190D02*
X148834381Y-76768095D01*
X148120095Y-76577618D01*
X148834381Y-76387142D01*
X147834381Y-76149047D01*
X148834381Y-75768095D02*
X147834381Y-75768095D01*
X148548667Y-75434761D01*
X147834381Y-75101428D01*
X148834381Y-75101428D01*
X148834381Y-74101428D02*
X148834381Y-74672857D01*
X148834381Y-74387143D02*
X147834381Y-74387143D01*
X147977238Y-74482381D01*
X148072476Y-74577619D01*
X148120095Y-74672857D01*
X167376381Y-77910952D02*
X166376381Y-77910952D01*
X166376381Y-77529999D01*
X166424000Y-77434761D01*
X166471619Y-77387142D01*
X166566857Y-77339523D01*
X166709714Y-77339523D01*
X166804952Y-77387142D01*
X166852571Y-77434761D01*
X166900190Y-77529999D01*
X166900190Y-77910952D01*
X166376381Y-77006190D02*
X167376381Y-76768095D01*
X166662095Y-76577618D01*
X167376381Y-76387142D01*
X166376381Y-76149047D01*
X167376381Y-75768095D02*
X166376381Y-75768095D01*
X167090667Y-75434761D01*
X166376381Y-75101428D01*
X167376381Y-75101428D01*
X166471619Y-74672857D02*
X166424000Y-74625238D01*
X166376381Y-74530000D01*
X166376381Y-74291904D01*
X166424000Y-74196666D01*
X166471619Y-74149047D01*
X166566857Y-74101428D01*
X166662095Y-74101428D01*
X166804952Y-74149047D01*
X167376381Y-74720476D01*
X167376381Y-74101428D01*
X145969096Y-62449000D02*
X145873858Y-62401381D01*
X145731001Y-62401381D01*
X145588143Y-62449000D01*
X145492905Y-62544238D01*
X145445286Y-62639476D01*
X145397667Y-62829952D01*
X145397667Y-62972810D01*
X145445286Y-63163286D01*
X145492905Y-63258524D01*
X145588143Y-63353762D01*
X145731001Y-63401381D01*
X145826239Y-63401381D01*
X145969096Y-63353762D01*
X146016715Y-63306143D01*
X146016715Y-62972810D01*
X145826239Y-62972810D01*
X146445286Y-63401381D02*
X146445286Y-62401381D01*
X147016715Y-63401381D01*
X147016715Y-62401381D01*
X147492905Y-63401381D02*
X147492905Y-62401381D01*
X147731000Y-62401381D01*
X147873858Y-62449000D01*
X147969096Y-62544238D01*
X148016715Y-62639476D01*
X148064334Y-62829952D01*
X148064334Y-62972810D01*
X148016715Y-63163286D01*
X147969096Y-63258524D01*
X147873858Y-63353762D01*
X147731000Y-63401381D01*
X147492905Y-63401381D01*
X160978905Y-88166381D02*
X160978905Y-87166381D01*
X161217000Y-87166381D01*
X161359858Y-87214000D01*
X161455096Y-87309238D01*
X161502715Y-87404476D01*
X161550334Y-87594952D01*
X161550334Y-87737810D01*
X161502715Y-87928286D01*
X161455096Y-88023524D01*
X161359858Y-88118762D01*
X161217000Y-88166381D01*
X160978905Y-88166381D01*
X162502715Y-88166381D02*
X161931286Y-88166381D01*
X162217000Y-88166381D02*
X162217000Y-87166381D01*
X162121762Y-87309238D01*
X162026524Y-87404476D01*
X161931286Y-87452095D01*
X157676905Y-77752381D02*
X157676905Y-76752381D01*
X157915000Y-76752381D01*
X158057858Y-76800000D01*
X158153096Y-76895238D01*
X158200715Y-76990476D01*
X158248334Y-77180952D01*
X158248334Y-77323810D01*
X158200715Y-77514286D01*
X158153096Y-77609524D01*
X158057858Y-77704762D01*
X157915000Y-77752381D01*
X157676905Y-77752381D01*
X158629286Y-76847619D02*
X158676905Y-76800000D01*
X158772143Y-76752381D01*
X159010239Y-76752381D01*
X159105477Y-76800000D01*
X159153096Y-76847619D01*
X159200715Y-76942857D01*
X159200715Y-77038095D01*
X159153096Y-77180952D01*
X158581667Y-77752381D01*
X159200715Y-77752381D01*
M02*
