G04 #@! TF.FileFunction,Copper,L1,Top,Signal*
%FSLAX46Y46*%
G04 Gerber Fmt 4.6, Leading zero omitted, Abs format (unit mm)*
G04 Created by KiCad (PCBNEW 4.0.2-stable) date 3/13/2016 5:29:00 PM*
%MOMM*%
G01*
G04 APERTURE LIST*
%ADD10C,0.100000*%
%ADD11R,4.500000X1.750000*%
%ADD12R,1.000000X1.600000*%
%ADD13R,1.600000X1.000000*%
%ADD14R,1.727200X3.000000*%
%ADD15O,1.727200X3.000000*%
%ADD16R,2.032000X3.000000*%
%ADD17O,2.032000X3.000000*%
%ADD18R,1.700000X0.900000*%
%ADD19R,1.300000X0.700000*%
%ADD20R,1.060000X0.650000*%
%ADD21C,5.000000*%
%ADD22R,2.499360X1.800860*%
%ADD23C,1.000000*%
%ADD24C,1.000000*%
%ADD25C,0.500000*%
%ADD26C,0.750000*%
%ADD27C,2.000000*%
%ADD28C,0.250000*%
G04 APERTURE END LIST*
D10*
D11*
X160320000Y-66938000D03*
X160320000Y-70188000D03*
X164765000Y-81009000D03*
X164765000Y-84259000D03*
D12*
X157550000Y-84285000D03*
X160550000Y-84285000D03*
X153105000Y-71077000D03*
X156105000Y-71077000D03*
D13*
X150795000Y-82277000D03*
X150795000Y-85277000D03*
X148382000Y-82277000D03*
X148382000Y-85277000D03*
D14*
X159200000Y-63800000D03*
D15*
X156660000Y-63800000D03*
X154120000Y-63800000D03*
X151580000Y-63800000D03*
D16*
X150795000Y-87968000D03*
D17*
X148255000Y-87968000D03*
D18*
X154478000Y-79533000D03*
X154478000Y-82433000D03*
X151049000Y-70643000D03*
X151049000Y-73543000D03*
D19*
X160574000Y-80541000D03*
X160574000Y-82441000D03*
X156129000Y-67145000D03*
X156129000Y-69045000D03*
D20*
X158753000Y-82441000D03*
X158753000Y-81491000D03*
X158753000Y-80541000D03*
X156553000Y-80541000D03*
X156553000Y-82441000D03*
X154308000Y-69106000D03*
X154308000Y-68156000D03*
X154308000Y-67206000D03*
X152108000Y-67206000D03*
X152108000Y-69106000D03*
D21*
X144750000Y-76000000D03*
X163250000Y-76000000D03*
X146750000Y-66500000D03*
D22*
X154892020Y-87587000D03*
X158889980Y-87587000D03*
X154384020Y-74633000D03*
X158381980Y-74633000D03*
D23*
X142286000Y-87079000D03*
X161717000Y-85936000D03*
X157780000Y-72220000D03*
X152065000Y-78970000D03*
D24*
X143175000Y-87968000D02*
X148255000Y-87968000D01*
X143175000Y-87968000D02*
X142286000Y-87079000D01*
X148382000Y-85277000D02*
X148382000Y-87841000D01*
X148382000Y-87841000D02*
X148255000Y-87968000D01*
X150795000Y-85277000D02*
X148382000Y-85277000D01*
X160550000Y-84769000D02*
X161717000Y-85936000D01*
X160550000Y-84285000D02*
X160550000Y-84769000D01*
D25*
X158753000Y-81491000D02*
X159624000Y-81491000D01*
X159624000Y-81491000D02*
X160574000Y-82441000D01*
D24*
X160574000Y-82441000D02*
X160574000Y-84261000D01*
X160574000Y-84261000D02*
X160550000Y-84285000D01*
X156637000Y-71077000D02*
X157780000Y-72220000D01*
X156105000Y-71077000D02*
X156637000Y-71077000D01*
X156129000Y-69045000D02*
X156129000Y-71053000D01*
X156129000Y-71053000D02*
X156105000Y-71077000D01*
D25*
X154308000Y-68156000D02*
X155240000Y-68156000D01*
X155240000Y-68156000D02*
X156129000Y-69045000D01*
D24*
X154478000Y-82433000D02*
X150951000Y-82433000D01*
X150951000Y-82433000D02*
X150795000Y-82277000D01*
X148382000Y-82277000D02*
X144977000Y-82277000D01*
X144977000Y-82277000D02*
X141143000Y-78443000D01*
X146604000Y-72220000D02*
X147927000Y-73543000D01*
X147927000Y-73543000D02*
X151049000Y-73543000D01*
X142540000Y-72220000D02*
X146604000Y-72220000D01*
X141143000Y-73617000D02*
X142540000Y-72220000D01*
X141143000Y-78443000D02*
X141143000Y-73617000D01*
X148382000Y-82277000D02*
X148082000Y-82277000D01*
X148082000Y-82277000D02*
X148058000Y-82253000D01*
X154322000Y-82277000D02*
X154478000Y-82433000D01*
X150795000Y-87968000D02*
X150922000Y-87968000D01*
X150922000Y-87968000D02*
X152595000Y-86295000D01*
X152595000Y-86295000D02*
X152595000Y-83777000D01*
X152595000Y-83777000D02*
X151095000Y-82277000D01*
X151095000Y-82277000D02*
X150795000Y-82277000D01*
X148382000Y-82277000D02*
X150795000Y-82277000D01*
X156553000Y-82441000D02*
X154486000Y-82441000D01*
X154486000Y-82441000D02*
X154478000Y-82433000D01*
X157550000Y-84285000D02*
X157550000Y-83438000D01*
X157550000Y-83438000D02*
X156553000Y-82441000D01*
X156293590Y-84285000D02*
X157550000Y-84285000D01*
X154892020Y-87587000D02*
X154892020Y-85686570D01*
X154892020Y-85686570D02*
X156293590Y-84285000D01*
X151049000Y-73543000D02*
X153040020Y-73543000D01*
X153040020Y-73543000D02*
X153749020Y-74252000D01*
X153105000Y-71077000D02*
X153105000Y-73607980D01*
X153105000Y-73607980D02*
X153749020Y-74252000D01*
X152108000Y-69106000D02*
X153105000Y-70103000D01*
X153105000Y-70103000D02*
X153105000Y-71077000D01*
X158889980Y-87587000D02*
X163312000Y-87587000D01*
X163312000Y-87587000D02*
X164765000Y-86134000D01*
X164765000Y-86134000D02*
X164765000Y-84259000D01*
D26*
X158889980Y-83108980D02*
X158889980Y-87587000D01*
X158753000Y-82972000D02*
X158889980Y-83108980D01*
X158753000Y-82441000D02*
X158753000Y-82972000D01*
X156127730Y-72728000D02*
X158032730Y-74633000D01*
X158032730Y-74633000D02*
X158381980Y-74633000D01*
X155113000Y-72728000D02*
X156127730Y-72728000D01*
X154605000Y-72220000D02*
X155113000Y-72728000D01*
X154605000Y-69934000D02*
X154605000Y-72220000D01*
X154308000Y-69637000D02*
X154605000Y-69934000D01*
X154308000Y-69106000D02*
X154308000Y-69637000D01*
D27*
X158381980Y-74633000D02*
X160320000Y-72694980D01*
X160320000Y-72694980D02*
X160320000Y-70188000D01*
D24*
X164765000Y-81009000D02*
X164993000Y-81009000D01*
X164993000Y-81009000D02*
X166924000Y-79078000D01*
X166924000Y-79078000D02*
X166924000Y-66886000D01*
X166924000Y-66886000D02*
X163838000Y-63800000D01*
X163838000Y-63800000D02*
X159200000Y-63800000D01*
X154478000Y-79533000D02*
X152628000Y-79533000D01*
X152628000Y-79533000D02*
X152065000Y-78970000D01*
X156553000Y-80541000D02*
X156553000Y-79758000D01*
X156553000Y-79758000D02*
X156328000Y-79533000D01*
X156328000Y-79533000D02*
X154478000Y-79533000D01*
D25*
X150668000Y-77300000D02*
X149368000Y-76000000D01*
X149368000Y-76000000D02*
X144750000Y-76000000D01*
X156337000Y-77300000D02*
X150668000Y-77300000D01*
X158753000Y-80541000D02*
X158753000Y-79716000D01*
X158753000Y-79716000D02*
X156337000Y-77300000D01*
X160574000Y-80541000D02*
X158753000Y-80541000D01*
X162606000Y-68537000D02*
X163250000Y-69181000D01*
X163250000Y-69181000D02*
X163250000Y-76000000D01*
X157821000Y-68537000D02*
X162606000Y-68537000D01*
X156429000Y-67145000D02*
X157821000Y-68537000D01*
D28*
X156429000Y-67145000D02*
X156129000Y-67145000D01*
X156129000Y-67145000D02*
X154369000Y-67145000D01*
X154369000Y-67145000D02*
X154308000Y-67206000D01*
D24*
X157339001Y-66094999D02*
X155142001Y-66094999D01*
X155142001Y-66094999D02*
X154120000Y-65072998D01*
X154120000Y-65072998D02*
X154120000Y-63800000D01*
X160320000Y-66938000D02*
X158182002Y-66938000D01*
X158182002Y-66938000D02*
X157339001Y-66094999D01*
X160320000Y-66938000D02*
X160014000Y-66632000D01*
X152108000Y-67206000D02*
X152108000Y-64328000D01*
X152108000Y-64328000D02*
X151580000Y-63800000D01*
X151049000Y-70643000D02*
X150649000Y-70643000D01*
X150649000Y-70643000D02*
X150287000Y-70281000D01*
X150287000Y-70281000D02*
X150287000Y-68029000D01*
X150287000Y-68029000D02*
X151110000Y-67206000D01*
X151110000Y-67206000D02*
X152108000Y-67206000D01*
X151843000Y-64063000D02*
X151580000Y-63800000D01*
M02*
