G04 #@! TF.FileFunction,Copper,L2,Bot,Signal*
%FSLAX46Y46*%
G04 Gerber Fmt 4.6, Leading zero omitted, Abs format (unit mm)*
G04 Created by KiCad (PCBNEW 4.0.2-stable) date 3/13/2016 5:29:00 PM*
%MOMM*%
G01*
G04 APERTURE LIST*
%ADD10C,0.100000*%
%ADD11C,0.150000*%
%ADD12R,1.727200X3.000000*%
%ADD13O,1.727200X3.000000*%
%ADD14R,2.032000X3.000000*%
%ADD15O,2.032000X3.000000*%
%ADD16C,5.000000*%
%ADD17C,1.000000*%
%ADD18C,1.000000*%
%ADD19C,0.254000*%
G04 APERTURE END LIST*
D10*
D11*
X167027143Y-63616286D02*
X167074762Y-63568667D01*
X167122381Y-63425810D01*
X167122381Y-63330572D01*
X167074762Y-63187714D01*
X166979524Y-63092476D01*
X166884286Y-63044857D01*
X166693810Y-62997238D01*
X166550952Y-62997238D01*
X166360476Y-63044857D01*
X166265238Y-63092476D01*
X166170000Y-63187714D01*
X166122381Y-63330572D01*
X166122381Y-63425810D01*
X166170000Y-63568667D01*
X166217619Y-63616286D01*
X166122381Y-63949619D02*
X167122381Y-64187714D01*
X166408095Y-64378191D01*
X167122381Y-64568667D01*
X166122381Y-64806762D01*
X166122381Y-65092476D02*
X167122381Y-65330571D01*
X166408095Y-65521048D01*
X167122381Y-65711524D01*
X166122381Y-65949619D01*
X167027143Y-67663905D02*
X167074762Y-67616286D01*
X167122381Y-67473429D01*
X167122381Y-67378191D01*
X167074762Y-67235333D01*
X166979524Y-67140095D01*
X166884286Y-67092476D01*
X166693810Y-67044857D01*
X166550952Y-67044857D01*
X166360476Y-67092476D01*
X166265238Y-67140095D01*
X166170000Y-67235333D01*
X166122381Y-67378191D01*
X166122381Y-67473429D01*
X166170000Y-67616286D01*
X166217619Y-67663905D01*
X166122381Y-67949619D02*
X166122381Y-68521048D01*
X167122381Y-68235333D02*
X166122381Y-68235333D01*
X167122381Y-69425810D02*
X166646190Y-69092476D01*
X167122381Y-68854381D02*
X166122381Y-68854381D01*
X166122381Y-69235334D01*
X166170000Y-69330572D01*
X166217619Y-69378191D01*
X166312857Y-69425810D01*
X166455714Y-69425810D01*
X166550952Y-69378191D01*
X166598571Y-69330572D01*
X166646190Y-69235334D01*
X166646190Y-68854381D01*
X167122381Y-70330572D02*
X167122381Y-69854381D01*
X166122381Y-69854381D01*
X166122381Y-71282953D02*
X167122381Y-71616286D01*
X166122381Y-71949620D01*
X166217619Y-72235334D02*
X166170000Y-72282953D01*
X166122381Y-72378191D01*
X166122381Y-72616287D01*
X166170000Y-72711525D01*
X166217619Y-72759144D01*
X166312857Y-72806763D01*
X166408095Y-72806763D01*
X166550952Y-72759144D01*
X167122381Y-72187715D01*
X167122381Y-72806763D01*
X164947571Y-65314715D02*
X164995190Y-65457572D01*
X165042810Y-65505191D01*
X165138048Y-65552810D01*
X165280905Y-65552810D01*
X165376143Y-65505191D01*
X165423762Y-65457572D01*
X165471381Y-65362334D01*
X165471381Y-64981381D01*
X164471381Y-64981381D01*
X164471381Y-65314715D01*
X164519000Y-65409953D01*
X164566619Y-65457572D01*
X164661857Y-65505191D01*
X164757095Y-65505191D01*
X164852333Y-65457572D01*
X164899952Y-65409953D01*
X164947571Y-65314715D01*
X164947571Y-64981381D01*
X165471381Y-65981381D02*
X164471381Y-65981381D01*
X165471381Y-66552810D02*
X164899952Y-66124238D01*
X164471381Y-66552810D02*
X165042810Y-65981381D01*
X164566619Y-67695667D02*
X164519000Y-67743286D01*
X164471381Y-67838524D01*
X164471381Y-68076620D01*
X164519000Y-68171858D01*
X164566619Y-68219477D01*
X164661857Y-68267096D01*
X164757095Y-68267096D01*
X164899952Y-68219477D01*
X165471381Y-67648048D01*
X165471381Y-68267096D01*
X164471381Y-68886143D02*
X164471381Y-68981382D01*
X164519000Y-69076620D01*
X164566619Y-69124239D01*
X164661857Y-69171858D01*
X164852333Y-69219477D01*
X165090429Y-69219477D01*
X165280905Y-69171858D01*
X165376143Y-69124239D01*
X165423762Y-69076620D01*
X165471381Y-68981382D01*
X165471381Y-68886143D01*
X165423762Y-68790905D01*
X165376143Y-68743286D01*
X165280905Y-68695667D01*
X165090429Y-68648048D01*
X164852333Y-68648048D01*
X164661857Y-68695667D01*
X164566619Y-68743286D01*
X164519000Y-68790905D01*
X164471381Y-68886143D01*
X165471381Y-70171858D02*
X165471381Y-69600429D01*
X165471381Y-69886143D02*
X164471381Y-69886143D01*
X164614238Y-69790905D01*
X164709476Y-69695667D01*
X164757095Y-69600429D01*
X164471381Y-71029001D02*
X164471381Y-70838524D01*
X164519000Y-70743286D01*
X164566619Y-70695667D01*
X164709476Y-70600429D01*
X164899952Y-70552810D01*
X165280905Y-70552810D01*
X165376143Y-70600429D01*
X165423762Y-70648048D01*
X165471381Y-70743286D01*
X165471381Y-70933763D01*
X165423762Y-71029001D01*
X165376143Y-71076620D01*
X165280905Y-71124239D01*
X165042810Y-71124239D01*
X164947571Y-71076620D01*
X164899952Y-71029001D01*
X164852333Y-70933763D01*
X164852333Y-70743286D01*
X164899952Y-70648048D01*
X164947571Y-70600429D01*
X165042810Y-70552810D01*
D12*
X159200000Y-63800000D03*
D13*
X156660000Y-63800000D03*
X154120000Y-63800000D03*
X151580000Y-63800000D03*
D14*
X150795000Y-87968000D03*
D15*
X148255000Y-87968000D03*
D16*
X144750000Y-76000000D03*
X163250000Y-76000000D03*
X146750000Y-66500000D03*
D17*
X142286000Y-87079000D03*
X161717000Y-85936000D03*
X157780000Y-72220000D03*
X152065000Y-78970000D03*
D18*
X155240000Y-75776000D02*
X155240000Y-67236000D01*
X155240000Y-67236000D02*
X156660000Y-65816000D01*
X156660000Y-65816000D02*
X156660000Y-63800000D01*
X152564999Y-78451001D02*
X155240000Y-75776000D01*
X152065000Y-78970000D02*
X152564999Y-78470001D01*
X152564999Y-78470001D02*
X152564999Y-78451001D01*
D19*
G36*
X150387641Y-62631957D02*
X150289400Y-63125848D01*
X150289400Y-64474152D01*
X150387641Y-64968043D01*
X150667408Y-65386744D01*
X151086109Y-65666511D01*
X151580000Y-65764752D01*
X152073891Y-65666511D01*
X152492592Y-65386744D01*
X152772359Y-64968043D01*
X152850000Y-64577715D01*
X152927641Y-64968043D01*
X153207408Y-65386744D01*
X153626109Y-65666511D01*
X154120000Y-65764752D01*
X154613891Y-65666511D01*
X155032592Y-65386744D01*
X155312359Y-64968043D01*
X155390000Y-64577715D01*
X155467641Y-64968043D01*
X155733000Y-65365181D01*
X155733000Y-65432024D01*
X154584512Y-66580512D01*
X154383564Y-66881252D01*
X154313000Y-67236000D01*
X154313000Y-75392024D01*
X151909511Y-77795513D01*
X151871251Y-77852773D01*
X151409798Y-78314226D01*
X151279586Y-78444211D01*
X151138161Y-78784799D01*
X151137839Y-79153583D01*
X151278669Y-79494417D01*
X151539211Y-79755414D01*
X151879799Y-79896839D01*
X152248583Y-79897161D01*
X152589417Y-79756331D01*
X152850414Y-79495789D01*
X152850575Y-79495401D01*
X153220487Y-79125489D01*
X153258746Y-79068230D01*
X155747314Y-76579662D01*
X160322493Y-76579662D01*
X160767164Y-77655846D01*
X161589823Y-78479943D01*
X162665229Y-78926490D01*
X163829662Y-78927507D01*
X164905846Y-78482836D01*
X165729943Y-77660177D01*
X166176490Y-76584771D01*
X166177507Y-75420338D01*
X165732836Y-74344154D01*
X164910177Y-73520057D01*
X163834771Y-73073510D01*
X162670338Y-73072493D01*
X161594154Y-73517164D01*
X160770057Y-74339823D01*
X160323510Y-75415229D01*
X160322493Y-76579662D01*
X155747314Y-76579662D01*
X155895488Y-76431488D01*
X156096437Y-76130747D01*
X156167000Y-75776000D01*
X156167000Y-67619976D01*
X157315488Y-66471488D01*
X157516436Y-66170748D01*
X157587000Y-65816000D01*
X157587000Y-65365181D01*
X157852359Y-64968043D01*
X157901035Y-64723332D01*
X157901035Y-65300000D01*
X157930809Y-65458237D01*
X158024327Y-65603567D01*
X158167019Y-65701064D01*
X158336400Y-65735365D01*
X160063600Y-65735365D01*
X160221837Y-65705591D01*
X160367167Y-65612073D01*
X160464664Y-65469381D01*
X160498965Y-65300000D01*
X160498965Y-62502000D01*
X165318000Y-62502000D01*
X165318000Y-64241285D01*
X163667000Y-64241285D01*
X163667000Y-71816714D01*
X165318000Y-71816714D01*
X165318000Y-73499238D01*
X167498000Y-73499238D01*
X167498000Y-89498000D01*
X152240290Y-89498000D01*
X152246365Y-89468000D01*
X152246365Y-86468000D01*
X152216591Y-86309763D01*
X152123073Y-86164433D01*
X151980381Y-86066936D01*
X151811000Y-86032635D01*
X149779000Y-86032635D01*
X149620763Y-86062409D01*
X149475433Y-86155927D01*
X149377936Y-86298619D01*
X149343635Y-86468000D01*
X149343635Y-86549832D01*
X149201361Y-86370290D01*
X148841471Y-86165554D01*
X148628000Y-86200865D01*
X148628000Y-87595000D01*
X148648000Y-87595000D01*
X148648000Y-88341000D01*
X148628000Y-88341000D01*
X148628000Y-88361000D01*
X147882000Y-88361000D01*
X147882000Y-88341000D01*
X146904483Y-88341000D01*
X146798310Y-88570333D01*
X146954478Y-89118777D01*
X147254984Y-89498000D01*
X140502000Y-89498000D01*
X140502000Y-87365667D01*
X146798310Y-87365667D01*
X146904483Y-87595000D01*
X147882000Y-87595000D01*
X147882000Y-86200865D01*
X147668529Y-86165554D01*
X147308639Y-86370290D01*
X146954478Y-86817223D01*
X146798310Y-87365667D01*
X140502000Y-87365667D01*
X140502000Y-76579662D01*
X141822493Y-76579662D01*
X142267164Y-77655846D01*
X143089823Y-78479943D01*
X144165229Y-78926490D01*
X145329662Y-78927507D01*
X146405846Y-78482836D01*
X147229943Y-77660177D01*
X147676490Y-76584771D01*
X147677507Y-75420338D01*
X147232836Y-74344154D01*
X146410177Y-73520057D01*
X145334771Y-73073510D01*
X144170338Y-73072493D01*
X143094154Y-73517164D01*
X142270057Y-74339823D01*
X141823510Y-75415229D01*
X141822493Y-76579662D01*
X140502000Y-76579662D01*
X140502000Y-68781350D01*
X144996152Y-68781350D01*
X145311366Y-69114696D01*
X146421476Y-69466205D01*
X147581601Y-69366136D01*
X148188634Y-69114696D01*
X148503848Y-68781350D01*
X146750000Y-67027502D01*
X144996152Y-68781350D01*
X140502000Y-68781350D01*
X140502000Y-66171476D01*
X143783795Y-66171476D01*
X143883864Y-67331601D01*
X144135304Y-67938634D01*
X144468650Y-68253848D01*
X146222498Y-66500000D01*
X147277502Y-66500000D01*
X149031350Y-68253848D01*
X149364696Y-67938634D01*
X149716205Y-66828524D01*
X149616136Y-65668399D01*
X149364696Y-65061366D01*
X149031350Y-64746152D01*
X147277502Y-66500000D01*
X146222498Y-66500000D01*
X144468650Y-64746152D01*
X144135304Y-65061366D01*
X143783795Y-66171476D01*
X140502000Y-66171476D01*
X140502000Y-64218650D01*
X144996152Y-64218650D01*
X146750000Y-65972498D01*
X148503848Y-64218650D01*
X148188634Y-63885304D01*
X147078524Y-63533795D01*
X145918399Y-63633864D01*
X145311366Y-63885304D01*
X144996152Y-64218650D01*
X140502000Y-64218650D01*
X140502000Y-62502000D01*
X150474475Y-62502000D01*
X150387641Y-62631957D01*
X150387641Y-62631957D01*
G37*
X150387641Y-62631957D02*
X150289400Y-63125848D01*
X150289400Y-64474152D01*
X150387641Y-64968043D01*
X150667408Y-65386744D01*
X151086109Y-65666511D01*
X151580000Y-65764752D01*
X152073891Y-65666511D01*
X152492592Y-65386744D01*
X152772359Y-64968043D01*
X152850000Y-64577715D01*
X152927641Y-64968043D01*
X153207408Y-65386744D01*
X153626109Y-65666511D01*
X154120000Y-65764752D01*
X154613891Y-65666511D01*
X155032592Y-65386744D01*
X155312359Y-64968043D01*
X155390000Y-64577715D01*
X155467641Y-64968043D01*
X155733000Y-65365181D01*
X155733000Y-65432024D01*
X154584512Y-66580512D01*
X154383564Y-66881252D01*
X154313000Y-67236000D01*
X154313000Y-75392024D01*
X151909511Y-77795513D01*
X151871251Y-77852773D01*
X151409798Y-78314226D01*
X151279586Y-78444211D01*
X151138161Y-78784799D01*
X151137839Y-79153583D01*
X151278669Y-79494417D01*
X151539211Y-79755414D01*
X151879799Y-79896839D01*
X152248583Y-79897161D01*
X152589417Y-79756331D01*
X152850414Y-79495789D01*
X152850575Y-79495401D01*
X153220487Y-79125489D01*
X153258746Y-79068230D01*
X155747314Y-76579662D01*
X160322493Y-76579662D01*
X160767164Y-77655846D01*
X161589823Y-78479943D01*
X162665229Y-78926490D01*
X163829662Y-78927507D01*
X164905846Y-78482836D01*
X165729943Y-77660177D01*
X166176490Y-76584771D01*
X166177507Y-75420338D01*
X165732836Y-74344154D01*
X164910177Y-73520057D01*
X163834771Y-73073510D01*
X162670338Y-73072493D01*
X161594154Y-73517164D01*
X160770057Y-74339823D01*
X160323510Y-75415229D01*
X160322493Y-76579662D01*
X155747314Y-76579662D01*
X155895488Y-76431488D01*
X156096437Y-76130747D01*
X156167000Y-75776000D01*
X156167000Y-67619976D01*
X157315488Y-66471488D01*
X157516436Y-66170748D01*
X157587000Y-65816000D01*
X157587000Y-65365181D01*
X157852359Y-64968043D01*
X157901035Y-64723332D01*
X157901035Y-65300000D01*
X157930809Y-65458237D01*
X158024327Y-65603567D01*
X158167019Y-65701064D01*
X158336400Y-65735365D01*
X160063600Y-65735365D01*
X160221837Y-65705591D01*
X160367167Y-65612073D01*
X160464664Y-65469381D01*
X160498965Y-65300000D01*
X160498965Y-62502000D01*
X165318000Y-62502000D01*
X165318000Y-64241285D01*
X163667000Y-64241285D01*
X163667000Y-71816714D01*
X165318000Y-71816714D01*
X165318000Y-73499238D01*
X167498000Y-73499238D01*
X167498000Y-89498000D01*
X152240290Y-89498000D01*
X152246365Y-89468000D01*
X152246365Y-86468000D01*
X152216591Y-86309763D01*
X152123073Y-86164433D01*
X151980381Y-86066936D01*
X151811000Y-86032635D01*
X149779000Y-86032635D01*
X149620763Y-86062409D01*
X149475433Y-86155927D01*
X149377936Y-86298619D01*
X149343635Y-86468000D01*
X149343635Y-86549832D01*
X149201361Y-86370290D01*
X148841471Y-86165554D01*
X148628000Y-86200865D01*
X148628000Y-87595000D01*
X148648000Y-87595000D01*
X148648000Y-88341000D01*
X148628000Y-88341000D01*
X148628000Y-88361000D01*
X147882000Y-88361000D01*
X147882000Y-88341000D01*
X146904483Y-88341000D01*
X146798310Y-88570333D01*
X146954478Y-89118777D01*
X147254984Y-89498000D01*
X140502000Y-89498000D01*
X140502000Y-87365667D01*
X146798310Y-87365667D01*
X146904483Y-87595000D01*
X147882000Y-87595000D01*
X147882000Y-86200865D01*
X147668529Y-86165554D01*
X147308639Y-86370290D01*
X146954478Y-86817223D01*
X146798310Y-87365667D01*
X140502000Y-87365667D01*
X140502000Y-76579662D01*
X141822493Y-76579662D01*
X142267164Y-77655846D01*
X143089823Y-78479943D01*
X144165229Y-78926490D01*
X145329662Y-78927507D01*
X146405846Y-78482836D01*
X147229943Y-77660177D01*
X147676490Y-76584771D01*
X147677507Y-75420338D01*
X147232836Y-74344154D01*
X146410177Y-73520057D01*
X145334771Y-73073510D01*
X144170338Y-73072493D01*
X143094154Y-73517164D01*
X142270057Y-74339823D01*
X141823510Y-75415229D01*
X141822493Y-76579662D01*
X140502000Y-76579662D01*
X140502000Y-68781350D01*
X144996152Y-68781350D01*
X145311366Y-69114696D01*
X146421476Y-69466205D01*
X147581601Y-69366136D01*
X148188634Y-69114696D01*
X148503848Y-68781350D01*
X146750000Y-67027502D01*
X144996152Y-68781350D01*
X140502000Y-68781350D01*
X140502000Y-66171476D01*
X143783795Y-66171476D01*
X143883864Y-67331601D01*
X144135304Y-67938634D01*
X144468650Y-68253848D01*
X146222498Y-66500000D01*
X147277502Y-66500000D01*
X149031350Y-68253848D01*
X149364696Y-67938634D01*
X149716205Y-66828524D01*
X149616136Y-65668399D01*
X149364696Y-65061366D01*
X149031350Y-64746152D01*
X147277502Y-66500000D01*
X146222498Y-66500000D01*
X144468650Y-64746152D01*
X144135304Y-65061366D01*
X143783795Y-66171476D01*
X140502000Y-66171476D01*
X140502000Y-64218650D01*
X144996152Y-64218650D01*
X146750000Y-65972498D01*
X148503848Y-64218650D01*
X148188634Y-63885304D01*
X147078524Y-63533795D01*
X145918399Y-63633864D01*
X145311366Y-63885304D01*
X144996152Y-64218650D01*
X140502000Y-64218650D01*
X140502000Y-62502000D01*
X150474475Y-62502000D01*
X150387641Y-62631957D01*
M02*
